<svg xmlns="http://www.w3.org/2000/svg" width="512" height="512">
  <g fill="none" stroke="#000" stroke-linecap="round" stroke-linejoin="round" stroke-miterlimit="10" stroke-width="20">
    <path d="M120.548 48.424c-2.785-7.996-14.104-7.996-16.979 0L52.813 205.457h118.583c-.09 0-50.848-157.033-50.848-157.033zM26.849 284.512c-2.336 7.188.27 15.183 6.379 19.765l222.703 165.296L52.722 205.457l-25.873 79.055zM171.306 205.457l84.715 264.115 84.714-264.115zM485.189 284.512l-25.872-79.055-203.296 264.115 222.703-165.296c6.196-4.582 8.712-12.577 6.465-19.764zM408.471 48.424c-2.785-7.996-14.104-7.996-16.979 0l-50.848 157.033h118.584L408.471 48.424z"/>
  </g>
</svg>