<svg xmlns="http://www.w3.org/2000/svg" viewBox="0 0 512 512" width="100" height="100">
  <path d="M182.063 246.043c-5.677 29.109-25.731 26.09-50.384 26.09l9.847-50.744c27.313.001 45.856-2.946 40.537 24.654zm-86.824 77.48h26.378l6.254-32.199c29.54 0 47.868 2.157 64.83-13.728 18.759-17.251 23.646-47.941 10.278-63.322-6.97-8.05-18.184-12.003-33.421-12.003h-50.816L95.239 323.523zM228.709 170h26.235l-6.253 32.199c22.64 0 43.628-1.653 53.763 7.691 10.638 9.775 5.535 22.281-5.966 81.291h-26.594c11.069-57.068 13.154-61.812 9.128-66.125-3.88-4.168-12.722-3.306-34.069-3.306l-13.513 69.431h-26.235L228.709 170zm159.492 76.043c-5.751 29.542-26.379 26.09-50.385 26.09l9.847-50.744c27.456.001 45.857-2.946 40.538 24.654zm-86.824 77.48h26.449l6.254-32.199c31.049 0 48.227 1.796 64.83-13.728 18.759-17.251 23.646-47.941 10.279-63.322-6.974-8.05-18.186-12.003-33.423-12.003H324.95l-23.573 121.252z"/>
  <path fill="none" stroke="#000" stroke-linecap="round" stroke-linejoin="round" stroke-miterlimit="10" stroke-width="20" d="M256.001 135.034c-127.003 0-230 54.121-230 120.965s102.997 120.967 230 120.967 229.998-54.123 229.998-120.967-102.995-120.965-229.998-120.965z"/>
</svg>